<mxfile host="app.diagrams.net" modified="2023-07-23T13:35:27.049Z" agent="Mozilla/5.0 (Macintosh; Intel Mac OS X 10_15_7) AppleWebKit/537.36 (KHTML, like Gecko) Chrome/114.0.0.0 Safari/537.36" version="21.6.5" etag="8Jpt1FjM0SXx4V-pH-M4" type="github">
  <diagram name="PÃ¡gina-1" id="21hTjKnOjE9aC9GP03fU">
    <mxGraphModel>
      <root>
        <mxCell id="0" />
        <mxCell id="1" parent="0" />
      </root>
    </mxGraphModel>
  </diagram>
</mxfile>
